<?xml version="1.0" encoding="UTF-8"?>
<svg xmlns="http://www.w3.org/2000/svg" viewBox="0 0 1024 1024">
  <defs>
    <style>
      .cls-1 {
        stroke-linecap: round;
        stroke-width: 4px;
      }

      .cls-1, .cls-2 {
        stroke: #132229;
      }

      .cls-1, .cls-2, .cls-3 {
        stroke-miterlimit: 10;
      }

      .cls-1, .cls-4 {
        fill: #132229;
      }

      .cls-5 {
        fill: #fff;
      }

      .cls-2 {
        stroke-width: 60px;
      }

      .cls-2, .cls-3 {
        fill: none;
      }

      .cls-3 {
        stroke: #16b1cc;
        stroke-width: 5px;
      }

      .cls-6 {
        fill: #335de8;
      }

      .cls-7 {
        fill: #16b1cc;
      }

      .cls-8 {
        fill: #48afc3;
      }
    </style>
  </defs>
  <g id="lock">
    <path class="cls-4" d="M820.73,302.34c13.07,0,23.7,10.63,23.7,23.7v578.41c0,13.07-10.63,23.7-23.7,23.7H219.73c-13.07,0-23.7-10.63-23.7-23.7V326.04c0-13.07,10.63-23.7,23.7-23.7h601M820.73,268.34H219.73c-31.87,0-57.7,25.83-57.7,57.7v578.41c0,31.87,25.83,57.7,57.7,57.7h601c31.87,0,57.7-25.83,57.7-57.7V326.04c0-31.87-25.83-57.7-57.7-57.7h0Z"/>
    <path class="cls-2" d="M303.75,268.34c0-119.86,97.16-217.02,217.02-217.02s217.02,97.16,217.02,217.02"/>
  </g>
  <g id="glitch_cat" data-name="glitch cat">
    <path class="cls-6" d="M564.07,389.15v540.53h106.43v-36.37s-33.62-10.22-30.39-44.91c3.23-34.69,27.97-107.57,29.31-140.65v-36.3h6.45v-40.61h-29.04v-23.4h-30.66v-18.56h29.58v-31.46h34.69v-26.35h57.82v-8.61h60.78v-15.06h-100.04v-18.29h54.05v-18.02h-53.78v-127.47s-4.57-17.48-23.66,0c-19.09,17.48-55.13,45.99-55.13,45.99l-56.41-.47Z"/>
    <rect class="cls-6" x="656.78" y="582.97" width="29.58" height="12.37"/>
    <rect class="cls-6" x="720.25" y="545.32" width="34.96" height="13.98"/>
    <rect class="cls-6" x="670.5" y="893.31" width="47.73" height="36.37"/>
    <rect class="cls-6" x="569.05" y="747.08" width="271.34" height="27.03" transform="translate(-55.88 1465.31) rotate(-90)"/>
    <rect class="cls-6" x="718.23" y="624.93" width="52.84" height="27.03"/>
    <rect class="cls-6" x="744.35" y="651.65" width="26.42" height="27.03" transform="translate(1422.72 -92.4) rotate(90)"/>
    <path class="cls-5" d="M643,487.88s-38.93-.94-44.98,8.94c0,0-6.52,8.4,19.9,8.81,0,0,22.19,1.41,25.08-17.75Z"/>
  </g>
  <g id="normal_cat" data-name="normal cat">
    <path class="cls-4" d="M564.07,389.15v540.53h-184.75s-38.72-33.88-42.35-116.58c-3.95-90.03,74.22-165.39,95.6-181.92,21.38-16.54,51.63-37.92,52.84-64.94,0,0-53.96-27.37-56.4-82.5-.08-1.9-.03-3.81.08-5.72.36-6.24,1.48-20.75,4.49-32.76.66-2.65,1-5.37,1-8.1v-88.06c0-4.06,1.8-8.01,5.12-10.34,4-2.8,10.92-2.24,19.99,6.23l49.17,43.27c1.7,1.48,3.91,2.24,6.16,2.12,8.61-.46,31.41-1.54,49.05-1.22Z"/>
    <line class="cls-1" x1="456.42" y1="534.54" x2="420.65" y2="568.74"/>
    <line class="cls-1" x1="442.41" y1="518.2" x2="392.97" y2="520.44"/>
    <path class="cls-5" d="M482.52,463.17s11.91-4.79,23.8-.13c3.09,1.21-.37,25.57,1.14,29.65,1.82,4.91,7.77,6.22,10.75,5.17,3.62-1.27,6.3-5.91,6.19-18.95-.03-3.73,2.72-6.15,6.66-2.02,4.61,4.85,6.76,11.76,7.26,21.78,0,0-3.09,5.24-10.08,6.23-8.81,1.25-45.72,4.26-45.72-41.73Z"/>
    <rect class="cls-4" x="558.29" y="670.1" width="35.5" height="17.75"/>
    <rect class="cls-4" x="545.86" y="687.85" width="35.5" height="13.45"/>
    <rect class="cls-4" x="543.23" y="646.57" width="35.5" height="12.91"/>
    <rect class="cls-4" x="535.23" y="718.71" width="35.5" height="17.75"/>
    <rect class="cls-6" x="548.68" y="533.63" width="16.47" height="11.29"/>
  </g>
  <g id="new_key" data-name="new key">
    <circle class="cls-7" cx="361.33" cy="892.21" r="10.72"/>
    <circle class="cls-7" cx="262.37" cy="700.97" r="15.16"/>
    <circle class="cls-7" cx="302.86" cy="670.66" r="10.72"/>
    <circle class="cls-8" cx="361.33" cy="349.99" r="15.16"/>
    <circle class="cls-7" cx="346.18" cy="448.87" r="10.72"/>
    <circle class="cls-7" cx="316.94" cy="492.24" r="7.58"/>
    <circle class="cls-7" cx="401.46" cy="466.76" r="10.72"/>
    <circle class="cls-8" cx="416.62" cy="670.66" r="15.16"/>
    <circle class="cls-8" cx="309.37" cy="586.3" r="10.72"/>
    <circle class="cls-8" cx="469.78" cy="704.2" r="10.72"/>
    <circle class="cls-7" cx="326.25" cy="633.52" r="7.37"/>
    <circle class="cls-7" cx="313.57" cy="403.19" r="7.54"/>
    <circle class="cls-7" cx="401.46" cy="388.45" r="7.37"/>
    <circle class="cls-8" cx="361.33" cy="778.14" r="15.16"/>
    <circle class="cls-7" cx="262.37" cy="830.55" r="10.72"/>
    <circle class="cls-7" cx="335.46" cy="542.87" r="7.37"/>
    <circle class="cls-7" cx="469.78" cy="830.55" r="7.37"/>
    <circle class="cls-7" cx="401.46" cy="622.52" r="7.37"/>
    <polygon class="cls-3" points="361.33 349.99 313.57 403.19 346.18 448.87 316.94 492.24 335.46 542.87 309.37 586.3 326.25 633.52 302.86 670.66 262.37 700.97 262.37 830.55 361.33 892.21 469.78 830.55 469.78 704.2 416.62 670.66 401.46 622.52 401.46 466.76 401.46 388.45 361.33 349.99"/>
    <polyline class="cls-3" points="313.57 403.19 401.46 388.45 346.18 448.87 401.46 466.76 316.94 492.24"/>
    <polyline class="cls-3" points="309.37 586.3 401.46 622.52 335.46 542.87 401.46 466.76"/>
    <polyline class="cls-3" points="262.37 700.97 361.33 778.14 302.86 670.66 416.62 670.66 326.25 633.52 401.46 622.52"/>
    <polyline class="cls-3" points="361.33 892.21 361.33 778.14 262.37 830.55"/>
    <polyline class="cls-3" points="416.62 670.66 361.33 778.14 469.78 830.55"/>
    <line class="cls-3" x1="469.78" y1="704.2" x2="361.33" y2="778.14"/>
  </g>
  <g id="top_whiskers" data-name="top whiskers">
    <line class="cls-1" x1="442.41" y1="518.2" x2="392.97" y2="520.44"/>
  </g>
</svg>